<svg width="600" height="600" viewBox="0 0 600 600" fill="none" xmlns="http://www.w3.org/2000/svg">
<rect width="600" height="600" fill="black"/>
<path d="M134.03 143C105.818 143 91 160.216 91 186.03V414.584C91 440.398 105.818 457.614 134.03 457.614H466.97C495.182 457.614 510 440.398 510 414.584V186.03C510 160.216 495.182 143 466.97 143H134.03Z" fill="#D9D6CC"/>
<path d="M137.426 160.641C115.095 160.641 108.444 174.024 108.444 190.648V300.051L206.998 300.233C233.327 300.282 244.109 310.874 255.08 325.696C257.874 329.471 261.274 334.587 264.593 337.909C274.504 347.83 287.501 352.786 300.499 352.786C313.497 352.786 326.494 347.83 336.406 337.909C339.725 334.587 343.124 329.471 345.918 325.696C356.89 310.874 367.671 300.282 394.001 300.233L492.554 300.051V190.648C492.554 174.024 485.903 160.641 463.572 160.641H137.426Z" fill="#F16D5E"/>
<path d="M137.426 160.641C115.095 160.641 108.444 174.024 108.444 190.648V225.699C108.444 209.075 115.095 195.692 137.426 195.692H463.572C485.903 195.692 492.554 209.075 492.554 225.699V190.648C492.554 174.024 485.903 160.641 463.572 160.641H137.426Z" fill="#3295C9"/>
<mask id="mask0_1444_32" style="mask-type:luminance" maskUnits="userSpaceOnUse" x="108" y="160" width="385" height="66">
<path d="M137.426 160.641C115.095 160.641 108.444 174.024 108.444 190.648V225.699C108.444 209.075 115.095 195.692 137.426 195.692H463.572C485.903 195.692 492.554 209.075 492.554 225.699V190.648C492.554 174.024 485.903 160.641 463.572 160.641H137.426Z" fill="white"/>
</mask>
<g mask="url(#mask0_1444_32)">
<g filter="url(#filter0_f_1444_32)">
<path d="M137.426 195.693C115.095 195.693 108.444 209.076 108.444 225.7V260.751C108.444 244.127 115.095 230.744 137.426 230.744H463.572C485.903 230.744 492.554 244.127 492.554 260.751V225.7C492.554 209.076 485.903 195.693 463.572 195.693H137.426Z" fill="black" fill-opacity="0.317757"/>
</g>
</g>
<path d="M137.426 195.693C115.095 195.693 108.444 209.076 108.444 225.7V260.751C108.444 244.127 115.095 230.744 137.426 230.744H463.572C485.903 230.744 492.554 244.127 492.554 260.751V225.7C492.554 209.076 485.903 195.693 463.572 195.693H137.426Z" fill="#FCAD00"/>
<mask id="mask1_1444_32" style="mask-type:luminance" maskUnits="userSpaceOnUse" x="108" y="195" width="385" height="66">
<path d="M137.426 195.693C115.095 195.693 108.444 209.076 108.444 225.7V260.751C108.444 244.127 115.095 230.744 137.426 230.744H463.572C485.903 230.744 492.554 244.127 492.554 260.751V225.7C492.554 209.076 485.903 195.693 463.572 195.693H137.426Z" fill="white"/>
</mask>
<g mask="url(#mask1_1444_32)">
<g filter="url(#filter1_f_1444_32)">
<path d="M137.426 230.742C115.095 230.742 108.444 244.126 108.444 260.75V295.801C108.444 279.177 115.095 265.794 137.426 265.794H463.572C485.903 265.794 492.554 279.177 492.554 295.801V260.75C492.554 244.126 485.903 230.742 463.572 230.742H137.426Z" fill="black" fill-opacity="0.313725"/>
</g>
</g>
<path d="M137.426 230.742C115.095 230.742 108.444 244.126 108.444 260.75V295.801C108.444 279.177 115.095 265.794 137.426 265.794H463.572C485.903 265.794 492.554 279.177 492.554 295.801V260.75C492.554 244.126 485.903 230.742 463.572 230.742H137.426Z" fill="#50BE3D"/>
<mask id="mask2_1444_32" style="mask-type:luminance" maskUnits="userSpaceOnUse" x="108" y="230" width="385" height="66">
<path d="M137.426 230.742C115.095 230.742 108.444 244.126 108.444 260.75V295.801C108.444 279.177 115.095 265.794 137.426 265.794H463.572C485.903 265.794 492.554 279.177 492.554 295.801V260.75C492.554 244.126 485.903 230.742 463.572 230.742H137.426Z" fill="white"/>
</mask>
<g mask="url(#mask2_1444_32)">
<g filter="url(#filter2_f_1444_32)">
<path d="M137.426 265.793C115.095 265.793 108.444 279.176 108.444 295.801V330.852C108.444 314.227 115.095 300.844 137.426 300.844H463.572C485.903 300.844 492.554 314.227 492.554 330.852V295.801C492.554 279.176 485.903 265.793 463.572 265.793H137.426Z" fill="black" fill-opacity="0.313725"/>
</g>
</g>
<mask id="mask3_1444_32" style="mask-type:luminance" maskUnits="userSpaceOnUse" x="108" y="265" width="385" height="88">
<path d="M137.426 265.793C115.095 265.793 108.444 279.176 108.444 295.8V300.05L206.998 300.232C233.327 300.281 244.109 310.873 255.08 325.695C257.874 329.47 261.274 334.586 264.593 337.908C274.504 347.829 287.501 352.785 300.499 352.785C313.497 352.785 326.494 347.829 336.406 337.908C339.725 334.586 343.124 329.47 345.918 325.695C356.89 310.873 367.671 300.281 394.001 300.232L492.554 300.05V295.8C492.554 279.176 485.903 265.793 463.572 265.793H137.426Z" fill="white"/>
</mask>
<g mask="url(#mask3_1444_32)">
<g filter="url(#filter3_f_1444_32)">
<path d="M134.03 143C105.818 143 91 160.216 91 186.03V414.584C91 440.398 105.818 457.614 134.03 457.614H466.97C495.182 457.614 510 440.398 510 414.584V186.03C510 160.216 495.182 143 466.97 143H134.03ZM137.427 160.641H463.573C485.904 160.641 492.555 174.024 492.555 190.648V300.051L394.001 300.233C367.672 300.282 356.891 310.874 345.919 325.696C343.125 329.471 339.726 334.587 336.406 337.909C326.495 347.83 313.498 352.786 300.5 352.786C287.502 352.786 274.505 347.83 264.594 337.909C261.274 334.587 257.875 329.471 255.081 325.696C244.109 310.874 233.328 300.282 206.999 300.233L108.445 300.051V190.648C108.445 174.024 115.096 160.641 137.427 160.641Z" fill="#F26D5F" fill-opacity="0.298039"/>
</g>
</g>
<path d="M91 274.37H108.445V300.052H91V274.37Z" fill="url(#paint0_linear_1444_32)"/>
<path d="M492.552 274.37H509.997V300.052H492.552V274.37Z" fill="url(#paint1_linear_1444_32)"/>
<defs>
<filter id="filter0_f_1444_32" x="81.5103" y="168.758" width="437.978" height="118.927" filterUnits="userSpaceOnUse" color-interpolation-filters="sRGB">
<feFlood flood-opacity="0" result="BackgroundImageFix"/>
<feBlend mode="normal" in="SourceGraphic" in2="BackgroundImageFix" result="shape"/>
<feGaussianBlur stdDeviation="13.467" result="effect1_foregroundBlur_1444_32"/>
</filter>
<filter id="filter1_f_1444_32" x="81.5103" y="203.808" width="437.978" height="118.927" filterUnits="userSpaceOnUse" color-interpolation-filters="sRGB">
<feFlood flood-opacity="0" result="BackgroundImageFix"/>
<feBlend mode="normal" in="SourceGraphic" in2="BackgroundImageFix" result="shape"/>
<feGaussianBlur stdDeviation="13.467" result="effect1_foregroundBlur_1444_32"/>
</filter>
<filter id="filter2_f_1444_32" x="81.5103" y="238.859" width="437.978" height="118.927" filterUnits="userSpaceOnUse" color-interpolation-filters="sRGB">
<feFlood flood-opacity="0" result="BackgroundImageFix"/>
<feBlend mode="normal" in="SourceGraphic" in2="BackgroundImageFix" result="shape"/>
<feGaussianBlur stdDeviation="13.467" result="effect1_foregroundBlur_1444_32"/>
</filter>
<filter id="filter3_f_1444_32" x="57.5146" y="109.515" width="485.971" height="381.585" filterUnits="userSpaceOnUse" color-interpolation-filters="sRGB">
<feFlood flood-opacity="0" result="BackgroundImageFix"/>
<feBlend mode="normal" in="SourceGraphic" in2="BackgroundImageFix" result="shape"/>
<feGaussianBlur stdDeviation="16.7427" result="effect1_foregroundBlur_1444_32"/>
</filter>
<linearGradient id="paint0_linear_1444_32" x1="91" y1="300.052" x2="91" y2="286.741" gradientUnits="userSpaceOnUse">
<stop stop-color="#CBC9BE"/>
<stop offset="1" stop-color="#C8C5BB" stop-opacity="0"/>
</linearGradient>
<linearGradient id="paint1_linear_1444_32" x1="492.552" y1="300.052" x2="492.552" y2="286.741" gradientUnits="userSpaceOnUse">
<stop stop-color="#CBC9BE"/>
<stop offset="1" stop-color="#C8C5BB" stop-opacity="0"/>
</linearGradient>
</defs>
</svg>
